<svg xmlns="http://www.w3.org/2000/svg" viewBox="0 0 512 512" fill="#4f46e5">
  <defs>
    <linearGradient id="g" x1="0" y1="0" x2="1" y2="1">
      <stop offset="0%" stop-color="#6366f1"/>
      <stop offset="100%" stop-color="#4f46e5"/>
    </linearGradient>
  </defs>
  <rect width="512" height="512" rx="96" fill="url(#g)"/>
  <g fill="#fff">
    <circle cx="256" cy="256" r="120" opacity="0.2"/>
    <path d="M256 128a128 128 0 1 0 0 256 128 128 0 0 0 0-256zm0 32a96 96 0 1 1 0 192 96 96 0 0 1 0-192z"/>
    <path d="M256 192a16 16 0 0 0-16 16v64a16 16 0 0 0 8.8 14.3l48 24a16 16 0 1 0 14.3-28.6L272 255.1V208a16 16 0 0 0-16-16z"/>
  </g>
</svg>
